<svg width="118" height="32" viewBox="0 0 118 32" fill="none" xmlns="http://www.w3.org/2000/svg">
<path d="M117.501 13.1466C117.17 11.9668 116.679 10.9515 116.048 10.1208C115.413 9.29413 114.638 8.64402 113.738 8.19054C112.838 7.73707 111.826 7.51234 110.723 7.51234C110.345 7.51234 109.983 7.54043 109.636 7.5926C109.554 7.60464 109.473 7.61668 109.391 7.63273C109.321 7.64477 109.251 7.66082 109.184 7.67687C107.727 7.98989 106.465 8.77645 105.573 9.85194V0.0761719H102.589V26.2974H105.573V24.3912C106.726 25.7837 108.503 26.6867 110.505 26.7147C110.54 26.7188 110.575 26.7188 110.614 26.7188H110.723C111.826 26.7188 112.842 26.49 113.738 26.0406C114.638 25.5911 115.413 24.941 116.048 24.1103C116.679 23.2836 117.17 22.2643 117.501 21.0844C117.833 19.9086 118 18.5723 118 17.1196C117.996 15.6588 117.829 14.3265 117.501 13.1466ZM114.813 18.6646C114.813 20.2457 114.377 21.5379 113.52 22.5051C112.663 23.4722 111.471 23.9578 109.971 23.9578C109.371 23.9578 108.795 23.8775 108.253 23.717C107.716 23.5565 107.244 23.3197 106.847 23.0147C106.458 22.7097 106.142 22.3365 105.912 21.8951C105.686 21.4577 105.573 20.952 105.573 20.3862V17.3563V16.8748V13.6202C105.573 13.1547 105.69 12.7092 105.912 12.2919C106.138 11.8745 106.454 11.5174 106.843 11.2244C107.241 10.9314 107.712 10.6947 108.253 10.5221C108.791 10.3496 109.371 10.2613 109.967 10.2613C111.463 10.2613 112.659 10.7509 113.516 11.714C114.373 12.6811 114.81 13.9733 114.81 15.5545V18.6646H114.813Z" fill="#060628"/>
<path d="M52.1809 17.0033L50.311 23.055L48.4412 16.9993L45.3481 7.93384H42.3524L48.5736 26.2052L48.6048 26.2935H51.9511L58.18 8.11041L58.2385 7.93384H55.348L52.1809 17.0033Z" fill="#060628"/>
<path d="M64.4168 7.93384H61.4367V26.2935H64.4168V7.93384Z" fill="#060628"/>
<path d="M62.9248 0.0761719C62.3015 0.0761719 61.8379 0.236694 61.5535 0.557737C61.273 0.874767 61.1289 1.28811 61.1289 1.78573V2.24321C61.1289 2.74485 61.273 3.15819 61.5535 3.47121C61.8379 3.79225 62.2976 3.95277 62.9248 3.95277C63.548 3.95277 64.0116 3.79225 64.296 3.47121C64.5765 3.15418 64.7206 2.74083 64.7206 2.24321V1.78974C64.7206 1.29212 64.5765 0.87878 64.296 0.56175C64.0116 0.240707 63.5519 0.0761719 62.9248 0.0761719Z" fill="#060628"/>
<path d="M81.3468 10.2855L81.3741 10.2494V7.93384H68.1487V10.6868H77.6811L67.8682 23.6971L67.8409 23.7332V26.2935H81.6468V23.5406H71.3314L81.3468 10.2855Z" fill="#060628"/>
<path d="M88.3705 0.0761719H85.3904V23.2515C85.3904 24.1223 85.6475 24.8567 86.1578 25.4266C86.6681 26.0004 87.4278 26.2934 88.4133 26.2934H90.9571V23.5404H88.3705V0.0761719Z" fill="#060628"/>
<path d="M96.185 0.0761719C95.5617 0.0761719 95.0981 0.236694 94.8137 0.557737C94.5332 0.874767 94.3891 1.28811 94.3891 1.78573V2.24321C94.3891 2.74485 94.5332 3.15819 94.8137 3.47121C95.0981 3.79225 95.5578 3.95277 96.185 3.95277C96.8082 3.95277 97.2718 3.79225 97.5562 3.47121C97.8367 3.15418 97.9808 2.74083 97.9808 2.24321V1.78974C97.9808 1.29212 97.8367 0.87878 97.5562 0.56175C97.2718 0.240707 96.8121 0.0761719 96.185 0.0761719Z" fill="#060628"/>
<path d="M97.677 7.93384H94.6969V26.2935H97.677V7.93384Z" fill="#060628"/>
<path d="M27.2338 0H3.83322C1.71794 0 0 1.76975 0 3.94883V28.0512C0 30.2343 1.71794 32 3.83322 32H27.2299C29.3491 32 31.0631 30.2302 31.0631 28.0512V3.94883C31.067 1.76975 29.3491 0 27.2338 0ZM18.5506 23.9298C15.551 25.4026 11.9632 24.0903 10.5336 21.0003L4.67466 8.34311C4.62791 8.24279 4.67076 8.1224 4.76815 8.07424C7.76772 6.60145 11.3555 7.91372 12.7852 11.0038L18.6402 23.6649C18.6908 23.7612 18.648 23.8816 18.5506 23.9298ZM25.247 13.5159H22.2592V16.5939H19.3803V13.5159H16.3925V10.5503H19.3803V7.47229H22.2592V10.5503H25.247V13.5159Z" fill="#3C43B7"/>
</svg>
