<svg width="16" height="16" viewBox="0 0 16 16" fill="none" xmlns="http://www.w3.org/2000/svg">
<path d="M6.67333 14.0066C6.67333 14.7399 7.26667 15.3333 8 15.3333C8.73333 15.3333 9.32667 14.7399 9.32667 14.0066H6.67333ZM12.5867 11.2133V7.33325C12.5867 5.16659 11.0867 3.35325 9.06 2.87325V2.39325C9.06 1.80659 8.58667 1.33325 8 1.33325C7.41333 1.33325 6.94 1.80659 6.94 2.39325V2.87325C4.91333 3.35325 3.41333 5.16659 3.41333 7.33325V11.2133L2 12.6266V13.3333H14V12.6266L12.5867 11.2133ZM10.6667 8.67325H8.66667V10.6733H7.33333V8.67325H5.33333V7.33325H7.33333V5.33325H8.66667V7.33325H10.6667V8.67325Z" fill="#3C43B7"/>
</svg>
