<svg width="48" height="48" viewBox="0 0 48 48" fill="none" xmlns="http://www.w3.org/2000/svg">
<path fill-rule="evenodd" clip-rule="evenodd" d="M4.65517 9.50782e-05C4.04285 -0.00351044 3.4359 0.114435 2.86949 0.347098C2.30309 0.57976 1.78848 0.922513 1.3555 1.3555C0.922514 1.78848 0.57976 2.30309 0.347098 2.86949C0.114435 3.4359 -0.00351044 4.04285 9.50782e-05 4.65517V44.0784C-0.00348378 44.5906 0.0940046 45.0984 0.286978 45.5729C0.479951 46.0473 0.764617 46.479 1.12468 46.8433C1.48474 47.2076 1.91311 47.4972 2.38528 47.6957C2.85745 47.8942 3.36413 47.9975 3.87631 47.9999H44.0784C44.5944 48.0035 45.106 47.9045 45.5834 47.7088C46.0608 47.513 46.4945 47.2242 46.8594 46.8594C47.2243 46.4945 47.513 46.0608 47.7088 45.5834C47.9046 45.106 48.0035 44.5944 47.9999 44.0784V3.87631C47.9975 3.36413 47.8942 2.85745 47.6957 2.38528C47.4972 1.91311 47.2076 1.48474 46.8433 1.12468C46.479 0.764617 46.0473 0.479951 45.5729 0.286978C45.0984 0.0940046 44.5906 -0.00348378 44.0784 9.50782e-05H4.65517Z" fill="#1D1D6D"/>
<path fill-rule="evenodd" clip-rule="evenodd" d="M27.2693 37.7386H38.255V10.0798H27.2693V37.7386Z" fill="white"/>
<path fill-rule="evenodd" clip-rule="evenodd" d="M16.3018 25.8474C17.5037 25.8474 18.6787 26.2038 19.678 26.8716C20.6774 27.5393 21.4563 28.4884 21.9162 29.5988C22.3762 30.7092 22.4965 31.9311 22.262 33.1099C22.0275 34.2887 21.4488 35.3715 20.5989 36.2214C19.749 37.0713 18.6662 37.6501 17.4874 37.8846C16.3086 38.119 15.0867 37.9987 13.9763 37.5387C12.8659 37.0788 11.9168 36.2999 11.249 35.3005C10.5813 34.3012 10.2249 33.1263 10.2249 31.9244C10.2249 30.3127 10.8651 28.767 12.0048 27.6273C13.1444 26.4877 14.6901 25.8474 16.3018 25.8474Z" fill="white"/>
<path fill-rule="evenodd" clip-rule="evenodd" d="M10.4694 21.5817H21.9713V10.0798H10.4694V21.5817Z" fill="white"/>
</svg>
